<?xml version='1.0' encoding='utf-8'?>
<svg xmlns="http://www.w3.org/2000/svg" enable-background="new 110.5321 155.4603 1318.4679 1651.1766" version="1.1" viewBox="110.5321 155.4603 1318.4679 1651.1766">
<g stroke-width=".0938">
	<g fill="#fff" stroke="#fff">
		<path d="m247.34 416.22c347.04 0.06 694.07 0 1041.1 0.03-0.0399 85.05 0.02 170.09-0.0299 255.14-347.02-0.02-694.04-0.02-1041.1 0-0.06-85.06-0.01-170.11-0.02-255.17z"/>
		<path d="m416.68 757.99c17.64-1.46 35.67 1.99 51.47 9.98 16.49 8.27 30.52 21.39 39.87 37.29 12.03 20.19 16.2 44.85 11.62 67.89-5.33 28.08-23.92 53.2-49.14 66.6-25 13.62-56.1 15.22-82.4 4.35-19.49-7.9-36.2-22.42-46.82-40.55-9.38-15.75-13.95-34.25-13.3-52.54 0.67-19.17 7.12-38.14 18.53-53.58 16.22-22.49 42.51-37.3 70.17-39.44m-24.46 65.32c14.31 0.23 28.62 0.01 42.93 0.11-17.67 22.74-28.7 50.97-29.68 79.85 6.13-0.04 12.27 0.07 18.4-0.07 0.2-15.47 3.86-30.75 9.38-45.15 5.83-14.02 13.36-27.64 23.97-38.63-0.03-4.59-0.01-9.18-0.02-13.76-21.62-0.02-43.24 0.03-64.86-0.02-0.16 5.88 0.03 11.78-0.12 17.67z"/>
		<path d="m647.56 757.92c30.77-2.51 62.24 10.89 81.74 34.82 19.39 23.06 26.78 55.47 19.47 84.68-5.6 23.49-20.49 44.55-40.65 57.82-20.7 13.83-46.86 19.02-71.29 14.35-28.81-5.2-54.58-24.45-67.93-50.47-14.97-28.3-14.4-64.08 1.39-91.9 15.4-27.97 45.39-47.18 77.27-49.3m-14.38 54.28c-8.44 6.91-10.94 19.92-5.93 29.56 2.19 4.58 6.45 7.66 10.93 9.77-3.14 2.0099-6.6 3.67-9.1 6.53-6.94 7.54-8.37 18.9-5.48 28.49 2.63 8.68 10.02 15.37 18.5 18.22 12.04 3.8 26.83 2.77 36.3-6.34 8.14-7.67 10.68-20.08 7.77-30.65-2.14-7.4901-8.24-13.2-15.29-16.13 4.68-2.32 8.88-5.87 11.15-10.66 4.41-9.34 1.99-21.42-5.8101-28.23-5.9399-5.5-14.34-7.19-22.2-7.12-7.3499 0.07-15.14 1.61-20.84 6.56z"/>
		<path d="m869.54 758.87c20.57-3.29 42.2 0.2 60.58 10.05 17.14 9.02 31.39 23.37 40.39 40.52 9.3 17.55 12.87 38.04 10.24 57.72-2.66 21.26-12.82 41.43-28.12 56.39-12 11.81-27.12 20.42-43.43 24.61-20.2 5.25-42.1 3.8-61.38-4.24-18-7.39-33.56-20.46-44.16-36.75-14.8-22.49-19.27-51.28-12.43-77.27 5.79-22.45 20.07-42.51 39.24-55.51 11.65-8 25.12-13.27 39.07-15.52m-8.63 54.04c-5.1 5.07-8.06 12.03-8.83 19.13-1.19 9.64 0.64 20.2 7.15 27.72 5.47 6.69 14.1 10.83 22.81 10.09 6.27-0.14 11.96-3.45 16.2-7.89-0.73 6.82-1.12 13.92-4.17 20.19-2.79 5.52-9.76 8.93-15.65 6.2599-4.13-1.5699-5.78-6.09-6.36-10.11-6.16 0.69-12.34 1.22-18.47 2.05 1.09 5.58 2.81 11.25 6.52 15.69 3.62 4.55 9.08 7.39 14.76 8.42 10.14 1.8 21.35-0.39 29.12-7.45 6.58-5.58 10.26-13.81 11.96-22.12 2.26-11.08 2.37-22.51 1.32-33.74-1.1-10.1-3.8-20.77-11.27-28.13-11.64-12.18-33.41-12.26-45.09-0.1099z"/>
		<path d="m1100.5 758.73c21.03-3.2 43.08 0.81 61.62 11.24 14.75 8.25 27.29 20.44 35.91 34.99 11.28 18.7 15.72 41.34 12.66 62.94-2.51 18.67-10.75 36.49-23.23 50.59-11.55 13.15-26.75 23.05-43.44 28.31-21.76 6.85-45.96 5.79-66.95-3.21-15.08-6.33-28.34-16.7-38.45-29.52-13.09-16.71-20.55-37.83-20.43-59.08-0.32-20.71 6.52-41.38 18.82-58 15.04-20.46 38.33-34.63 63.49-38.26m19.46 44.52c-8.1801 34.13-16.33 68.27-24.53 102.4 4.7001 0.06 9.41 0.0099 14.12 0.05 8.27-34.12 16.42-68.27 24.82-102.35-4.8101-0.18-9.6101-0.07-14.41-0.1z"/>
		<path d="m880.86 819.84c4.67-0.8 9.26 1.8 11.92 5.54 3.73 5 4.14 11.6 3.52 17.61-0.51 4.53-2.74 9.14-6.87 11.39-5.51 3.26-13.25 1.02-16.3-4.6-3.21-6.02-3.07-13.31-1.9-19.86 0.85-4.87 4.6-9.3 9.63-10.08z"/>
		<path d="m651.2 821.2c4.51-1.17 9.89 0.06 12.8 3.89 3.97 5.6 2.79 14.88-3.67 18.13-4.62 2.1201-10.87 1.79-14.5-2.0699-5.77-5.96-3.35-18.3 5.37-19.95z"/>
		<path d="m649.43 860.66c4.74-1.66 10.56-1.06 14.28 2.55 5.78 5.33 5.91 14.68 2.69 21.42-3.26 6.74-12.73 8.84-18.78 4.67-9.49-6.42-8.87-23.8 1.81-28.64z"/>
		<path d="m411.57 984.86c13.74-1.65 27.87-0.83 41.13 3.27 27.01 8 49.91 28.51 60.91 54.44 10.4 23.99 10.45 52.23 0.09 76.25-7.9 18.59-21.83 34.54-39.14 44.93-18.29 11.14-40.38 15.75-61.61 13.11-18.55-2.16-36.37-9.98-50.62-22.04-19.2-16.06-31.74-39.83-33.95-64.79-2.81-27.4 6.92-55.78 25.96-75.69 14.96-16 35.54-26.53 57.23-29.48m12.7 46.29c-14.17 20.83-28.47 41.58-42.57 62.44-0.56 5.63-0.08 11.38-0.23 17.06 13.45-0.02 26.91 0.03 40.36-0.03 0.02 6.6 0.01 13.21 0.01 19.82 6.17 0 12.35-0.0099 18.53 0v-19.79c4.06-0.03 8.13 0.01 12.2-0.01-0.04-5.63 0.04-11.25-0.04-16.87-4.06 0.03-8.12 0.01-12.17 0.02 0.02-20.89 0.02-41.78 0-62.67-5.37 0-10.73-0.04-16.09 0.03z"/>
		<path d="m642.55 984.76c22.21-2.74 45.37 2.19 64.2 14.39 15.82 10.04 28.59 24.79 36.26 41.89 9.76 21.51 11.17 46.63 3.97 69.12-4.97 15.75-14.11 30.15-26.22 41.39-14.63 13.8-33.72 22.77-53.68 25.24-21.53 2.8199-43.99-1.87-62.52-13.23-16.83-10.18-30.41-25.64-38.33-43.65-10.75-24.14-10.93-52.76-0.51-77.05 12.96-31.15 43.3-54.15 76.83-58.1m-9.82 46.36c-3.26 17.17-6.44 34.36-9.75 51.53 4.64 0.75 9.29 1.39 13.94 2.08 1.71 0.6 2.7-1.11 3.85-1.99 4.88-4.7 12.74-6.7 18.94-3.5 4.44 2.14 7.02 6.86 7.64 11.61 0.67 5.75 0.6 11.94-2.17 17.19-2.74 5.2999-9.32 8.5499-15.13 6.62-6-1.61-9.63-7.53-10.48-13.39-6.32 0.71-12.67 1.1899-18.97 2.09 1.33 9.4301 6.65 18.49 15.21 23.03 8.21 4.38 18.12 5.02 27.09 2.9299 10.66-2.59 18.96-11.47 22.47-21.65 2.89-8.8101 2.64-18.72-0.98-27.28-3.39-7.7001-10.08-14-18.12-16.56-7.19-2.26-15.14-1.6-21.93 1.65 0.8799-5.5499 1.86-11.08 2.96-16.58 11.87 0.02 23.73-0.02 35.59 0.02 0.28-5.9401-0.14-11.88 0-17.81-16.72 0.0201-33.44-0.0099-50.16 0.0101z"/>
		<path d="m871.62 984.88c19.58-2.55 39.93 0.67 57.49 9.81 17.02 8.76 31.36 22.66 40.53 39.48 10.86 19.52 14.46 42.9 10.24 64.81-3.49 18.68-12.71 36.25-26.11 49.71-13.13 13.5-30.38 22.94-48.81 26.79-19.72 4.1901-40.76 2.1-59.18-6.12-18.25-7.98-33.85-21.83-44.03-38.95-8.87-14.81-13.75-32.09-13.58-49.38-0.31-21.19 6.95-42.33 19.86-59.1 15.23-20.07 38.61-33.71 63.59-37.05m-9.12 56.6c-5.76 6.48-8.29 15.09-9.61 23.49-1.57 11.29-1.57 22.82 0.17 34.1 1.5 8.6801 4.57 17.55 11.19 23.68 12.19 12.15 34.68 11.43 45.83-1.78 6.73-7.5599 8.6-18.27 7.56-28.07-0.73-7.49-4.02-14.81-9.6-19.93-6.95-6.9399-18.02-9.63-27.27-6.15-3.6 1.26-6.47 3.8201-9.2 6.39 0.49-6.4099 1.06-12.98 3.51-18.99 2.31-5.62 8.77-9.71 14.84-7.86 4.83 0.99 7.3 6.04 7.71 10.56 6.14-0.4401 12.25-1.3 18.38-1.9-0.87-6.79-3.79-13.52-8.98-18.11-5.35-4.9601-12.88-6.9301-20.04-6.62-9.29-0.0602-18.46 4.1298-24.49 11.19z"/>
		<path d="m1102.5 984.78c18.81-2.29 38.28 0.6899 55.27 9.1899 18.07 8.9301 33.23 23.62 42.64 41.45 10.47 19.57 13.73 42.79 9.36 64.53-3.64 18.36-12.82 35.58-26.03 48.85-13.65 13.96-31.69 23.57-50.89 27.11-19.1 3.6-39.29 1.35-57.06-6.55-18.9-8.3099-34.96-22.88-45.09-40.86-8.1899-14.4-12.61-30.96-12.47-47.53-0.27-20.88 6.76-41.71 19.34-58.34 15.37-20.68 39.37-34.65 64.93-37.85m-24 60.18c8.29 11.56 16.52 23.16 24.77 34.75-8.5601 12.33-17.26 24.56-25.76 36.93 7.4399-0.05 14.89 0.02 22.34-0.03 4.74-7.3099 9.6801-14.49 14.38-21.83 5.3 6.9299 9.72 14.53 14.61 21.78 7.8201 0.1499 15.65 0.0399 23.48 0.0499-8.76-12.6-17.63-25.12-26.44-37.69 8.0499-11.35 16.2-22.63 24.25-33.98-7.4501-0.0499-14.91 0.01-22.36-0.0299-4.36 6.4299-8.79 12.81-13.04 19.3-1.55-1.2-2.41-3-3.45-4.58-3.12-4.91-6.3101-9.76-9.42-14.67-7.7901-0.06-15.58-0.06-23.36 0z"/>
		<path d="m399.4 1093.8c7.45-11.17 15-22.28 22.44-33.45 0 11.15 0.01 22.31 0 33.46-7.48-0.04-14.96-0.02-22.44-0.01z"/>
		<path d="m882.21 1080c4.58-1.5901 10.04-0.15 13.1 3.6599 3.34 3.91 3.85 9.3401 3.95 14.29-0.16 4.24-0.46 8.77-2.81 12.46-2.59 3.9801-7.82 6-12.39 4.65-6-1.88-9.9-7.91-10.57-13.97-1.27-7.7499 0.25-18.13 8.72-21.09z"/>
		<path d="m408.48 1207.8c17.94-3 36.75-0.99 53.53 6.12 20.04 8.3 37.06 23.65 47.47 42.67 9.96 17.95 13.86 39.14 11.12 59.47-2.31 17.48-9.49 34.3-20.63 47.98-13.1 16.31-31.64 28.22-51.99 33.15-20.48 5.14-42.61 3.27-61.96-5.2-19.63-8.51-36.24-23.78-46.41-42.61-9.33-17.12-13.27-37.13-11.12-56.51 1.93-18.59 9.44-36.55 21.34-50.97 14.58-17.95 35.83-30.33 58.65-34.1m-15.14 70.8c-0.04 5.76 0 11.53-0.02 17.3 9.07-2.9299 17.55-7.76 24.49-14.31 0.02 23.83 0.01 47.66 0.01 71.49 6.33-0.35 12.68 0.12 19.02-0.24 0-33.11 0.03-66.23-0.01-99.34-5.12 0.01-10.23 0.0299-15.34-0.01-4.69 12.29-16.33 20.44-28.15 25.11z"/>
		<path d="m643.16 1207.2c19.72-2.3999 40.19 1.39 57.64 10.93 16.24 8.77 29.88 22.31 38.75 38.5 10.14 18.26 13.98 39.87 10.98 60.52-2.54 17.86-10.21 34.95-21.92 48.67-14.09 16.82-34.14 28.51-55.7 32.55-20.18 3.9-41.59 1.14-60.07-7.84-18.3-8.73-33.65-23.46-43.26-41.29-8.3-15.3-12.28-32.86-11.43-50.25 0.74-21.39 9.13-42.35 23.03-58.59 15.55-18.28 38.1-30.49 61.98-33.2m-10.18 53.7c-6.56 5.36-9.23 13.99-9.97 22.15 6.29 0.3899 12.53 1.4299 18.83 1.6799 0.73-4.6899 1.44-10.21 5.75-13.08 5.8799-3.87 15.55-2.9301 19.04 3.74 2.35 4.87 1.85 10.81-0.6 15.57-2.66 5.42-7.41 9.3401-11.54 13.61-8.82 8.55-18.25 16.63-25.48 26.66-4.58 6.3301-7.22 13.87-8.38 21.57 4.78 0.63 9.6-0.03 14.4 0.1 17.41 0.26 34.81 0.09 52.22 0 0.01-5.85-0.05-11.69 0.04-17.52-12.52-0.22-25.04-0.01-37.55-0.11 5.93-9.0601 15.11-15.26 22.46-23.09 7.86-7.8 14.6-17.83 15.04-29.24 0.5-7.2799-1.86-14.82-6.99-20.1-4.91-5.45-12.11-8.34-19.31-8.99-9.71-1.0098-20.26 0.6802-27.96 7.0502z"/>
		<path d="m868.68 1207.8c17.49-2.9199 35.8-1.0599 52.25 5.61 19.6 7.8 36.42 22.31 47.15 40.46 10.74 17.91 15.25 39.41 12.91 60.14-3.23 31.9-23.71 61.24-52.34 75.58-20.67 10.55-45.17 13.25-67.64 7.49-16.79-4.26-32.45-13.09-44.6-25.45-14.09-13.91-23.57-32.35-26.92-51.84-3.68-21.6-0.01-44.44 10.75-63.57 13.95-25.38 39.83-43.79 68.44-48.42m-6.37 52.48c-5.28 4.67-7.49 11.65-9.01 18.3 5.85 1.12 11.73 2.05 17.61 3.01 0.51-3.29 1.36-6.6801 3.64-9.21 4.04-4.9 12.38-5.4401 16.83-0.8101 4.48 4.98 3.46 13.9-2.1 17.71-3.15 2.3601-7.22 2.4901-10.97 2.88-0.57 5.12-1.42 10.21-2.03 15.34 3.99-0.9601 8.18-1.9501 12.27-0.9401 10.86 3.4 12.41 18.8 5.81 26.77-4.34 5.41-13.21 6.12-18.43 1.62-3.49-2.77-4.98-7.1899-5.59-11.44-6.06 0.7699-12.12 1.5-18.19 2.1699 0.38 10.6 7.42 20.48 16.97 24.91 6.48 3.11 13.91 3.6801 20.97 2.83 11.96-1.52 22.78-10.31 26.34-21.88 2.19-7.6499 1.88-16.51-2.8-23.2-3.24-4.97-8.65-8.15-14.34-9.5 4.7-2.62 9.12-6.17 11.67-11 3.13-5.87 3.04-13.16 0.3-19.15-3.75-7.9399-11.46-13.75-20.07-15.32-9.96-1.84-21.2-0.0699-28.88 6.91z"/>
		<path d="m1099.5 1207.7c21.63-3.51 44.45 0.51 63.44 11.49 15.83 9.03 29.01 22.63 37.53 38.74 9.39 17.58 13.03 38.13 10.39 57.88-2.58 20.94-12.43 40.86-27.35 55.76-14.13 14.25-32.79 23.95-52.61 27.17-22.57 3.83-46.44-0.72-66-12.63-16.42-9.9301-29.8-24.84-37.82-42.28-8.53-18.28-10.87-39.24-7.1401-59.02 3.63-18.91 13.1-36.66 26.8-50.18 14.17-14.23 32.92-23.8 52.76-26.93m6.74 59.05c0.01 8.5599-0.01 17.12 0 25.69-8.63-0.01-17.27-0.03-25.9 0.01 0.0299 5.92 0.0599 11.84-0.02 17.77 8.62 0.11 17.25 0.04 25.88 0.05 0.09 8.5299 0.01 17.07 0.0599 25.61 5.78-0.04 11.56-0.01 17.36-0.02-0.01-8.52 0.01-17.04-0.01-25.55 8.63-0.09 17.25-0.01 25.88-0.0299 0-5.9501 0.02-11.9 0.01-17.84-8.63-0.01-17.25 0-25.88-0.01-0.0699-8.5699 0.11-17.14-0.09-25.7-5.77 0.06-11.53 0.0502-17.29 0.0201z"/>
		<path d="m411.53 1429.9c19.66-2.66 40.15 0.72 57.74 9.97 18.47 9.6 33.77 25.28 42.69 44.11 9.55 19.74 11.98 42.79 6.89 64.11-4.09 17.58-13.3 33.94-26.19 46.57-12.99 12.96-29.81 22.01-47.75 25.81-21.68 4.5801-44.96 1.64-64.62-8.6599-17.98-9.2201-32.87-24.28-41.96-42.31-10-19.65-12.94-42.79-8.18-64.31 3.99-18.73 13.79-36.15 27.67-49.34 14.55-14.05 33.65-23.29 53.71-25.95m6.05 46.03c-6.23 1.26-12 4.8199-15.75 9.98-5.34 7.21-7.41 16.23-8.49 24.98-1.23 11.32-1.11 22.81 0.51 34.09 1.28 8.1001 3.59 16.6 9.56 22.58 11.36 12.33 34.23 11.87 44.2-1.98 5.8-7.9301 7.73-17.89 8.69-27.46 0.93-11.73 0.82-23.67-1.6-35.22-1.79-8.34-5.35-16.88-12.33-22.18-6.96-5.3699-16.36-6.3699-24.79-4.7899z"/>
		<path d="m641.54 1429.9c19.66-2.66 40.15 0.72 57.76 9.95 16.34 8.4601 30.17 21.7 39.34 37.67 11.73 20.21 15.65 44.75 10.94 67.64-6.22 31.97-29.89 59.78-60.39 71.14-22.29 8.53-47.78 8.36-69.97-0.4401-15.69-6.2-29.75-16.56-40.2-29.82-13.46-16.85-21.15-38.36-20.91-59.96-0.36-21.42 7.07-42.77 20.22-59.63 15.23-19.81 38.43-33.25 63.21-36.55m3.7 127.44c0.02 6.2899 0.01 12.59 0 18.9 6.33 0.1001 12.66 0.03 18.99 0.04 0.01-6.33 0.03-12.66-0.01-18.98-6.33 0.01-12.66-0.06-18.98 0.0401z"/>
		<path d="m880.14 1429.2c18.43-0.98 37.09 3.45 53.04 12.75 16.81 9.6599 30.6 24.52 38.93 42.03 10.41 21.4 12.26 46.71 5.48 69.49-5.05 17.16-15.07 32.8-28.44 44.66-14.69 13.18-33.54 21.66-53.16 23.82-20.97 2.46-42.71-2.12-60.8-13.04-15.88-9.46-28.93-23.61-37.1-40.19-8.8701-17.7-11.81-38.17-8.88-57.71 3.06-20.19 12.75-39.32 27.27-53.68 16.73-16.85 39.9-27.24 63.66-28.13m-29.88 72.89c0.02 5.83-0.01 11.65 0.04 17.48 23.03-0.03 46.07 0.01 69.11-0.02-0.03-5.8101-0.04-11.63 0.01-17.43-23.06-0.1099-46.11-0.0599-69.16-0.0299m0.01 29.92c0 5.86-0.01 11.73 0.01 17.6 23.04-0.0099 46.08 0 69.12-0.0099-0.03-5.88 0-11.75-0.02-17.61-23.04 0.01-46.07-0.03-69.11 0.02z"/>
		<path d="m1096.5 1430.7c19.88-3.79 40.95-1.35 59.29 7.28 19.68 9.14 36.1 25.12 45.72 44.58 16.61 32.45 12.5 74.2-10.29 102.69-11.49 14.8-27.37 26.16-45.13 32.15-20.74 7.0599-43.92 6.84-64.48-0.76-17.59-6.38-33.19-18.08-44.33-33.09-12.29-16.48-19.23-36.97-19.05-57.56-0.28-20.92 6.76-41.81 19.38-58.47 14.2-18.98 35.59-32.42 58.89-36.82m-0.3201 83.61c0.01 6.36 0.03 12.72-0.0099 19.09 12.46 0.0399 24.92-0.03 37.39 0.0299 0.04-6.37 0.02-12.74 0.02-19.1-12.47-0.0499-24.93 0-37.4-0.02z"/>
		<path d="m421.36 1491.7c3.98-1.5801 8.93-0.01 11.14 3.6799 3.64 6.1901 3.87 13.61 4.21 20.6 0.18 9.4301 0.34 18.9-0.64 28.3-0.72 4.62-1.38 9.6899-4.59 13.33-3.83 4.3401-11.76 3.66-14.65-1.4-4-6.98-3.92-15.32-4.26-23.12 0-10.38-0.49-20.89 1.65-31.1 0.9-4.14 2.81-8.7899 7.14-10.29z"/>
	</g>
	<g stroke="#000">
		<path d="m222.28 180.39c361.56-0.14 723.12-0.02 1084.7-0.06 27.78-1.54 55.92 9.45 75.09 29.65 14.04 14.5 23.42 33.46 26.22 53.47 1.28 8.12 0.9 16.35 0.95 24.54v1365c-0.04 11.97 0.0801 23.94-0.0599 35.91-1.01 30.86-18.08 60.47-43.98 77.18-15.95 10.53-35.09 15.99-54.19 15.78-353.69 0.03-707.37 0-1061.1 0.01-8.63-0.05-17.27 0.11-25.9-0.11-21.99-0.6001-43.59-9.1801-60.14-23.63-21.86-18.68-34.55-47.45-33.56-76.19 0.01-468.66 0-937.32 0-1406 0.19-23.3 9.29-46.35 24.94-63.58 16.94-18.96 41.56-30.88 67-32.02m25.06 235.83c0.01 85.06-0.04 170.11 0.02 255.17 347.02-0.02 694.04-0.02 1041.1 0 0.0499-85.05-0.01-170.09 0.0299-255.14-347.04-0.03-694.07 0.03-1041.1-0.03m169.34 341.77c-27.66 2.14-53.95 16.95-70.17 39.44-11.41 15.44-17.86 34.41-18.53 53.58-0.65 18.29 3.92 36.79 13.3 52.54 10.62 18.13 27.33 32.65 46.82 40.55 26.3 10.87 57.4 9.27 82.4-4.35 25.22-13.4 43.81-38.52 49.14-66.6 4.58-23.04 0.41-47.7-11.62-67.89-9.35-15.9-23.38-29.02-39.87-37.29-15.8-7.99-33.83-11.44-51.47-9.98m230.88-0.07c-31.88 2.12-61.87 21.33-77.27 49.3-15.79 27.82-16.36 63.6-1.39 91.9 13.35 26.02 39.12 45.27 67.93 50.47 24.43 4.67 50.59-0.52 71.29-14.35 20.16-13.27 35.05-34.33 40.65-57.82 7.31-29.21-0.08-61.62-19.47-84.68-19.5-23.93-50.97-37.33-81.74-34.82m221.98 0.95c-13.95 2.25-27.42 7.52-39.07 15.52-19.17 13-33.45 33.06-39.24 55.51-6.84 25.99-2.37 54.78 12.43 77.27 10.6 16.29 26.16 29.36 44.16 36.75 19.28 8.04 41.18 9.49 61.38 4.24 16.31-4.19 31.43-12.8 43.43-24.61 15.3-14.96 25.46-35.13 28.12-56.39 2.63-19.68-0.94-40.17-10.24-57.72-9-17.15-23.25-31.5-40.39-40.52-18.38-9.85-40.01-13.34-60.58-10.05m231-0.14c-25.16 3.63-48.45 17.8-63.49 38.26-12.3 16.62-19.14 37.29-18.82 58-0.12 21.25 7.34 42.37 20.43 59.08 10.11 12.82 23.37 23.19 38.45 29.52 20.99 9 45.19 10.06 66.95 3.21 16.69-5.26 31.89-15.16 43.44-28.31 12.48-14.1 20.72-31.92 23.23-50.59 3.0601-21.6-1.38-44.24-12.66-62.94-8.62-14.55-21.16-26.74-35.91-34.99-18.54-10.43-40.59-14.44-61.62-11.24m-688.97 226.13c-21.69 2.95-42.27 13.48-57.23 29.48-19.04 19.91-28.77 48.29-25.96 75.69 2.21 24.96 14.75 48.73 33.95 64.79 14.25 12.06 32.07 19.88 50.62 22.04 21.23 2.64 43.32-1.97 61.61-13.11 17.31-10.39 31.24-26.34 39.14-44.93 10.36-24.02 10.31-52.26-0.09-76.25-11-25.93-33.9-46.44-60.91-54.44-13.26-4.0999-27.39-4.9199-41.13-3.2699m230.98-0.1c-33.53 3.95-63.87 26.95-76.83 58.1-10.42 24.29-10.24 52.91 0.51 77.05 7.92 18.01 21.5 33.47 38.33 43.65 18.53 11.36 40.99 16.05 62.52 13.23 19.96-2.4701 39.05-11.44 53.68-25.24 12.11-11.24 21.25-25.64 26.22-41.39 7.2-22.49 5.79-47.61-3.97-69.12-7.67-17.1-20.44-31.85-36.26-41.89-18.83-12.2-41.99-17.13-64.2-14.39m229.07 0.12c-24.98 3.34-48.36 16.98-63.59 37.05-12.91 16.77-20.17 37.91-19.86 59.1-0.17 17.29 4.71 34.57 13.58 49.38 10.18 17.12 25.78 30.97 44.03 38.95 18.42 8.22 39.46 10.31 59.18 6.12 18.43-3.85 35.68-13.29 48.81-26.79 13.4-13.46 22.62-31.03 26.11-49.71 4.22-21.91 0.62-45.29-10.24-64.81-9.17-16.82-23.51-30.72-40.53-39.48-17.56-9.1401-37.91-12.36-57.49-9.8101m230.89-0.1c-25.56 3.2-49.56 17.17-64.93 37.85-12.58 16.63-19.61 37.46-19.34 58.34-0.14 16.57 4.28 33.13 12.47 47.53 10.13 17.98 26.19 32.55 45.09 40.86 17.77 7.9 37.96 10.15 57.06 6.55 19.2-3.54 37.24-13.15 50.89-27.11 13.21-13.27 22.39-30.49 26.03-48.85 4.37-21.74 1.11-44.96-9.36-64.53-9.41-17.83-24.57-32.52-42.64-41.45-16.99-8.4999-36.46-11.48-55.27-9.1899m-694.03 223.07c-22.82 3.77-44.07 16.15-58.65 34.1-11.9 14.42-19.41 32.38-21.34 50.97-2.15 19.38 1.79 39.39 11.12 56.51 10.17 18.83 26.78 34.1 46.41 42.61 19.35 8.47 41.48 10.34 61.96 5.2 20.35-4.9299 38.89-16.84 51.99-33.15 11.14-13.68 18.32-30.5 20.63-47.98 2.7401-20.33-1.16-41.52-11.12-59.47-10.41-19.02-27.43-34.37-47.47-42.67-16.78-7.1101-35.59-9.1201-53.53-6.1201m234.68-0.65c-23.88 2.7101-46.43 14.92-61.98 33.2-13.9 16.24-22.29 37.2-23.03 58.59-0.85 17.39 3.13 34.95 11.43 50.25 9.61 17.83 24.96 32.56 43.26 41.29 18.48 8.98 39.89 11.74 60.07 7.84 21.56-4.04 41.61-15.73 55.7-32.55 11.71-13.72 19.38-30.81 21.92-48.67 3-20.65-0.84-42.26-10.98-60.52-8.87-16.19-22.51-29.73-38.75-38.5-17.45-9.5402-37.92-13.33-57.64-10.93m225.52 0.64c-28.61 4.63-54.49 23.04-68.44 48.42-10.76 19.13-14.43 41.97-10.75 63.57 3.35 19.49 12.83 37.93 26.92 51.84 12.15 12.36 27.81 21.19 44.6 25.45 22.47 5.76 46.97 3.0601 67.64-7.49 28.63-14.34 49.11-43.68 52.34-75.58 2.34-20.73-2.17-42.23-12.91-60.14-10.73-18.15-27.55-32.66-47.15-40.46-16.45-6.6699-34.76-8.5299-52.25-5.6099m230.79-0.11c-19.84 3.13-38.59 12.7-52.76 26.93-13.7 13.52-23.17 31.27-26.8 50.18-3.73 19.78-1.39 40.74 7.1401 59.02 8.0199 17.44 21.4 32.35 37.82 42.28 19.56 11.91 43.43 16.46 66 12.63 19.82-3.22 38.48-12.92 52.61-27.17 14.92-14.9 24.77-34.82 27.35-55.76 2.64-19.75-1-40.3-10.39-57.88-8.5199-16.11-21.7-29.71-37.53-38.74-18.99-10.98-41.81-15-63.44-11.49m-687.94 222.15c-20.06 2.66-39.16 11.9-53.71 25.95-13.88 13.19-23.68 30.61-27.67 49.34-4.76 21.52-1.82 44.66 8.18 64.31 9.09 18.03 23.98 33.09 41.96 42.31 19.66 10.3 42.94 13.24 64.62 8.6599 17.94-3.7999 34.76-12.85 47.75-25.81 12.89-12.63 22.1-28.99 26.19-46.57 5.09-21.32 2.66-44.37-6.89-64.11-8.92-18.83-24.22-34.51-42.69-44.11-17.59-9.25-38.08-12.63-57.74-9.97m230.01-0.01c-24.78 3.3-47.98 16.74-63.21 36.55-13.15 16.86-20.58 38.21-20.22 59.63-0.24 21.6 7.45 43.11 20.91 59.96 10.45 13.26 24.51 23.62 40.2 29.82 22.19 8.8 47.68 8.9701 69.97 0.4401 30.5-11.36 54.17-39.17 60.39-71.14 4.71-22.89 0.79-47.43-10.94-67.64-9.17-15.97-23-29.21-39.34-37.67-17.61-9.23-38.1-12.61-57.76-9.95m238.6-0.71c-23.76 0.89-46.93 11.28-63.66 28.13-14.52 14.36-24.21 33.49-27.27 53.68-2.93 19.54 0.0099 40.01 8.88 57.71 8.17 16.58 21.22 30.73 37.1 40.19 18.09 10.92 39.83 15.5 60.8 13.04 19.62-2.16 38.47-10.64 53.16-23.82 13.37-11.86 23.39-27.5 28.44-44.66 6.78-22.78 4.93-48.09-5.48-69.49-8.33-17.51-22.12-32.37-38.93-42.03-15.95-9.2999-34.61-13.73-53.04-12.75m216.37 1.57c-23.3 4.4-44.69 17.84-58.89 36.82-12.62 16.66-19.66 37.55-19.38 58.47-0.18 20.59 6.76 41.08 19.05 57.56 11.14 15.01 26.74 26.71 44.33 33.09 20.56 7.6 43.74 7.8199 64.48 0.76 17.76-5.9901 33.64-17.35 45.13-32.15 22.79-28.49 26.9-70.24 10.29-102.69-9.62-19.46-26.04-35.44-45.72-44.58-18.34-8.63-39.41-11.07-59.29-7.28z"/>
		<path d="m860.91 812.91c11.68-12.15 33.45-12.07 45.09 0.11 7.47 7.36 10.17 18.03 11.27 28.13 1.05 11.23 0.94 22.66-1.32 33.74-1.7 8.31-5.38 16.54-11.96 22.12-7.77 7.06-18.98 9.25-29.12 7.45-5.68-1.03-11.14-3.87-14.76-8.42-3.71-4.44-5.43-10.11-6.52-15.69 6.1299-0.83 12.31-1.36 18.47-2.05 0.58 4.02 2.23 8.54 6.36 10.11 5.89 2.67 12.86-0.74 15.65-6.2599 3.05-6.27 3.44-13.37 4.17-20.19-4.24 4.44-9.93 7.75-16.2 7.89-8.71 0.7401-17.34-3.4-22.81-10.09-6.51-7.52-8.34-18.08-7.15-27.72 0.77-7.1001 3.73-14.06 8.83-19.13m19.95 6.93c-5.03 0.78-8.78 5.21-9.63 10.08-1.17 6.55-1.31 13.84 1.9 19.86 3.05 5.62 10.79 7.86 16.3 4.6 4.13-2.25 6.36-6.86 6.87-11.39 0.62-6.01 0.21-12.61-3.52-17.61-2.66-3.74-7.25-6.34-11.92-5.54z"/>
		<path d="m1120 803.25c4.8 0.03 9.6-0.08 14.41 0.1-8.4 34.08-16.55 68.23-24.82 102.35-4.71-0.04-9.4199 0.01-14.12-0.05 8.2001-34.13 16.35-68.27 24.53-102.4z"/>
		<path d="m392.22 823.31c0.15-5.89-0.04-11.79 0.12-17.67 21.62 0.05 43.24 0 64.86 0.02 0.01 4.58-0.01 9.17 0.02 13.76-10.61 10.99-18.14 24.61-23.97 38.63-5.52 14.4-9.18 29.68-9.38 45.15-6.13 0.14-12.27 0.03-18.4 0.07 0.98-28.88 12.01-57.11 29.68-79.85-14.31-0.1-28.62 0.12-42.93-0.11z"/>
		<path d="m633.18 812.2c5.7-4.95 13.49-6.49 20.84-6.56 7.86-0.07 16.26 1.62 22.2 7.12 7.8 6.81 10.22 18.89 5.8101 28.23-2.27 4.79-6.47 8.34-11.15 10.66 7.05 2.93 13.15 8.64 15.29 16.13 2.91 10.57 0.37 22.98-7.77 30.65-9.47 9.11-24.26 10.14-36.3 6.34-8.48-2.85-15.87-9.54-18.5-18.22-2.89-9.59-1.46-20.95 5.48-28.49 2.5-2.86 5.96-4.52 9.1-6.53-4.48-2.11-8.74-5.19-10.93-9.77-5.0101-9.64-2.5101-22.65 5.9299-29.56m18.02 9c-8.72 1.65-11.14 13.99-5.37 19.95 3.63 3.86 9.88 4.19 14.5 2.0699 6.46-3.25 7.64-12.53 3.67-18.13-2.91-3.83-8.29-5.06-12.8-3.89m-1.77 39.46c-10.68 4.84-11.3 22.22-1.81 28.64 6.05 4.17 15.52 2.07 18.78-4.67 3.22-6.74 3.09-16.09-2.69-21.42-3.72-3.61-9.54-4.21-14.28-2.55z"/>
		<path d="m862.5 1041.5c6.03-7.0599 15.2-11.25 24.49-11.19 7.16-0.3101 14.69 1.6599 20.04 6.62 5.1899 4.59 8.11 11.32 8.98 18.11-6.13 0.6-12.24 1.46-18.38 1.9-0.41-4.52-2.88-9.5701-7.71-10.56-6.07-1.85-12.53 2.24-14.84 7.86-2.45 6.01-3.02 12.58-3.51 18.99 2.73-2.5699 5.6-5.13 9.2-6.39 9.25-3.48 20.32-0.7899 27.27 6.15 5.58 5.12 8.87 12.44 9.6 19.93 1.04 9.7999-0.83 20.51-7.56 28.07-11.15 13.21-33.64 13.93-45.83 1.78-6.62-6.13-9.69-15-11.19-23.68-1.74-11.28-1.74-22.81-0.17-34.1 1.32-8.4 3.85-17.01 9.61-23.49m19.71 38.56c-8.47 2.96-9.9901 13.34-8.72 21.09 0.67 6.0599 4.57 12.09 10.57 13.97 4.57 1.35 9.8-0.6699 12.39-4.65 2.35-3.6899 2.65-8.22 2.81-12.46-0.1-4.95-0.61-10.38-3.95-14.29-3.06-3.81-8.52-5.25-13.1-3.66z"/>
		<path d="m424.27 1031.2c5.36-0.0701 10.72-0.03 16.09-0.03 0.02 20.89 0.02 41.78 0 62.67 4.05-0.01 8.11 0.01 12.17-0.02 0.08 5.62 0 11.24 0.04 16.87-4.07 0.02-8.14-0.02-12.2 0.01v19.79c-6.18-0.0099-12.36 0-18.53 0 0-6.61 0.01-13.22-0.01-19.82-13.45 0.0601-26.91 0.01-40.36 0.03 0.15-5.6801-0.33-11.43 0.23-17.06 14.1-20.86 28.4-41.61 42.57-62.44m-24.87 62.64c7.48-0.01 14.96-0.03 22.44 0.01 0.01-11.15 0-22.31 0-33.46-7.44 11.17-14.99 22.28-22.44 33.45z"/>
		<path d="m632.73 1031.1c16.72-0.02 33.44 0.01 50.16-0.01-0.14 5.9301 0.28 11.87 0 17.81-11.86-0.04-23.72 0-35.59-0.02-1.1 5.5-2.08 11.03-2.96 16.58 6.79-3.25 14.74-3.91 21.93-1.65 8.04 2.5601 14.73 8.86 18.12 16.56 3.62 8.5599 3.87 18.47 0.98 27.28-3.51 10.18-11.81 19.06-22.47 21.65-8.97 2.0901-18.88 1.4501-27.09-2.9299-8.56-4.54-13.88-13.6-15.21-23.03 6.3-0.9 12.65-1.38 18.97-2.09 0.85 5.86 4.48 11.78 10.48 13.39 5.81 1.9299 12.39-1.3201 15.13-6.62 2.77-5.25 2.84-11.44 2.17-17.19-0.62-4.75-3.2-9.47-7.64-11.61-6.2-3.2-14.06-1.2-18.94 3.5-1.15 0.88-2.14 2.59-3.85 1.99-4.65-0.6899-9.3-1.33-13.94-2.08 3.31-17.17 6.49-34.36 9.75-51.53z"/>
		<path d="m1078.5 1045c7.78-0.0599 15.57-0.0599 23.36 0 3.11 4.91 6.3 9.76 9.42 14.67 1.0399 1.58 1.8999 3.38 3.45 4.58 4.25-6.49 8.6801-12.87 13.04-19.3 7.45 0.0399 14.91-0.02 22.36 0.0299-8.05 11.35-16.2 22.63-24.25 33.98 8.8099 12.57 17.68 25.09 26.44 37.69-7.83-0.01-15.66 0.1-23.48-0.0499-4.89-7.25-9.3099-14.85-14.61-21.78-4.7 7.34-9.64 14.52-14.38 21.83-7.45 0.05-14.9-0.02-22.34 0.03 8.5-12.37 17.2-24.6 25.76-36.93-8.2499-11.59-16.48-23.19-24.77-34.75z"/>
		<path d="m862.31 1260.3c7.68-6.98 18.92-8.75 28.88-6.9099 8.61 1.5699 16.32 7.38 20.07 15.32 2.74 5.99 2.83 13.28-0.3 19.15-2.55 4.83-6.97 8.38-11.67 11 5.69 1.35 11.1 4.53 14.34 9.5 4.68 6.6899 4.99 15.55 2.8 23.2-3.56 11.57-14.38 20.36-26.34 21.88-7.06 0.8501-14.49 0.28-20.97-2.83-9.55-4.4301-16.59-14.31-16.97-24.91 6.0699-0.6699 12.13-1.4 18.19-2.1699 0.61 4.25 2.1 8.6699 5.59 11.44 5.22 4.5 14.09 3.79 18.43-1.62 6.6-7.97 5.05-23.37-5.81-26.77-4.09-1.01-8.28-0.02-12.27 0.9401 0.61-5.13 1.46-10.22 2.03-15.34 3.75-0.3899 7.82-0.5199 10.97-2.88 5.56-3.8099 6.58-12.73 2.1-17.71-4.45-4.63-12.79-4.09-16.83 0.8101-2.28 2.5299-3.13 5.9199-3.64 9.21-5.8799-0.96-11.76-1.89-17.61-3.01 1.52-6.65 3.73-13.63 9.01-18.3z"/>
		<path d="m393.34 1278.6c11.82-4.67 23.46-12.82 28.15-25.11 5.11 0.0399 10.22 0.02 15.34 0.01 0.04 33.11 0.01 66.23 0.01 99.34-6.34 0.36-12.69-0.11-19.02 0.24 0-23.83 0.01-47.66-0.01-71.49-6.94 6.5499-15.42 11.38-24.49 14.31 0.02-5.7698-0.02-11.54 0.02-17.3z"/>
		<path d="m632.98 1260.9c7.7-6.37 18.25-8.0601 27.96-7.05 7.2 0.65 14.4 3.54 19.31 8.99 5.13 5.28 7.49 12.82 6.99 20.1-0.44 11.41-7.18 21.44-15.04 29.24-7.35 7.83-16.53 14.03-22.46 23.09 12.51 0.1 25.03-0.11 37.55 0.11-0.09 5.83-0.03 11.67-0.04 17.52-17.41 0.09-34.81 0.26-52.22 0-4.8-0.13-9.6201 0.53-14.4-0.1 1.16-7.7001 3.8-15.24 8.38-21.57 7.23-10.03 16.66-18.11 25.48-26.66 4.13-4.2699 8.88-8.1899 11.54-13.61 2.45-4.76 2.95-10.7 0.6-15.57-3.49-6.67-13.16-7.61-19.04-3.74-4.31 2.87-5.02 8.39-5.75 13.08-6.3-0.25-12.54-1.29-18.83-1.6799 0.74-8.1602 3.41-16.79 9.97-22.15z"/>
		<path d="m1106.2 1266.8c5.76 0.03 11.52 0.0399 17.29-0.02 0.2 8.5599 0.02 17.13 0.09 25.7 8.63 0.01 17.25 0 25.88 0.01 0.01 5.9401-0.01 11.89-0.01 17.84-8.63 0.0199-17.25-0.0601-25.88 0.0299 0.02 8.51 0 17.03 0.01 25.55-5.7999 0.01-11.58-0.02-17.36 0.02-0.0499-8.54 0.03-17.08-0.0599-25.61-8.63-0.01-17.26 0.0599-25.88-0.05 0.08-5.9301 0.0499-11.85 0.02-17.77 8.6299-0.04 17.27-0.02 25.9-0.01-0.01-8.57 0.01-17.13 0-25.69z"/>
		<path d="m417.58 1475.9c8.43-1.5801 17.83-0.5801 24.79 4.7899 6.98 5.3 10.54 13.84 12.33 22.18 2.42 11.55 2.53 23.49 1.6 35.22-0.96 9.5701-2.89 19.53-8.69 27.46-9.97 13.85-32.84 14.31-44.2 1.98-5.97-5.98-8.28-14.48-9.56-22.58-1.62-11.28-1.74-22.77-0.51-34.09 1.08-8.75 3.15-17.77 8.49-24.98 3.75-5.16 9.52-8.72 15.75-9.98m3.78 15.77c-4.33 1.5-6.24 6.1499-7.14 10.29-2.14 10.21-1.65 20.72-1.65 31.1 0.34 7.8 0.26 16.14 4.26 23.12 2.89 5.0601 10.82 5.7401 14.65 1.4 3.21-3.64 3.87-8.71 4.59-13.33 0.98-9.4 0.82-18.87 0.64-28.3-0.34-6.99-0.57-14.41-4.21-20.6-2.21-3.69-7.16-5.26-11.14-3.6799z"/>
		<path d="m850.26 1502c23.05-0.03 46.1-0.0801 69.16 0.0299-0.05 5.8-0.04 11.62-0.01 17.43-23.04 0.03-46.08-0.01-69.11 0.02-0.05-5.83-0.02-11.65-0.04-17.48z"/>
		<path d="m1096.2 1514.3c12.47 0.02 24.93-0.0299 37.4 0.02 0 6.36 0.02 12.73-0.02 19.1-12.47-0.0599-24.93 0.01-37.39-0.0299 0.04-6.37 0.02-12.73 0.0099-19.09z"/>
		<path d="m850.27 1532c23.04-0.0499 46.07-0.01 69.11-0.02 0.02 5.8601-0.01 11.73 0.02 17.61-23.04 0.0099-46.08 0-69.12 0.0099-0.02-5.87-0.01-11.74-0.01-17.6z"/>
		<path d="m645.24 1557.3c6.32-0.1001 12.65-0.03 18.98-0.04 0.04 6.3199 0.02 12.65 0.01 18.98-6.33-0.01-12.66 0.0601-18.99-0.04 0.01-6.3101 0.02-12.61 0-18.9z"/>
	</g>
</g>
</svg>